<svg width="148" height="137" viewBox="0 0 148 137" fill="none" xmlns="http://www.w3.org/2000/svg">
<g filter="url(#filter0_d_1_502)">
<path d="M67.9685 63.381H70.0519V60.2381H73.1769V58.1429H70.0519V55H67.9685V58.1429H64.8435V60.2381H67.9685V63.381ZM63.8019 72.8095C62.656 72.8095 61.729 73.7524 61.729 74.9048C61.729 76.0571 62.656 77 63.8019 77C64.9477 77 65.8852 76.0571 65.8852 74.9048C65.8852 73.7524 64.9477 72.8095 63.8019 72.8095ZM74.2185 72.8095C73.0727 72.8095 72.1456 73.7524 72.1456 74.9048C72.1456 76.0571 73.0727 77 74.2185 77C75.3644 77 76.3019 76.0571 76.3019 74.9048C76.3019 73.7524 75.3644 72.8095 74.2185 72.8095ZM63.979 69.4048L64.0102 69.279L64.9477 67.5714H72.7081C73.4894 67.5714 74.1769 67.1419 74.531 66.4924L78.5519 59.1486L76.7394 58.1429H76.729L75.5831 60.2381L72.7081 65.4762H65.3956L65.2602 65.1933L62.9269 60.2381L61.9373 58.1429L60.9581 56.0476H57.5519V58.1429H59.6352L63.3852 66.0943L61.979 68.661C61.8123 68.9543 61.7185 69.3 61.7185 69.6667C61.7185 70.819 62.656 71.7619 63.8019 71.7619H76.3019V69.6667H64.2394C64.104 69.6667 63.979 69.5514 63.979 69.4048Z" fill="black"/>
<path d="M73.5519 54.5C73.5519 49.8056 77.3575 46 82.0519 46H89.0519C93.7463 46 97.5519 49.8056 97.5519 54.5C97.5519 59.1944 93.7463 63 89.0519 63H82.0519C77.3575 63 73.5519 59.1944 73.5519 54.5Z" fill="#FFBA60"/>
<path d="M85.0087 52.4999C84.9487 52.5332 84.8487 52.5766 84.7087 52.6299C84.5687 52.6766 84.4621 52.7132 84.3887 52.7399C84.0954 52.8332 83.9121 52.8999 83.8387 52.9399V51.7899C84.0654 51.6966 84.3387 51.5632 84.6587 51.3899C84.9854 51.2099 85.2154 51.0466 85.3487 50.8999H86.5587V58.9999H85.0087V52.4999Z" fill="white"/>
</g>
<defs>
<filter id="filter0_d_1_502" x="0.55188" y="0" width="147" height="137" filterUnits="userSpaceOnUse" color-interpolation-filters="sRGB">
<feFlood flood-opacity="0" result="BackgroundImageFix"/>
<feColorMatrix in="SourceAlpha" type="matrix" values="0 0 0 0 0 0 0 0 0 0 0 0 0 0 0 0 0 0 127 0" result="hardAlpha"/>
<feOffset dy="4"/>
<feGaussianBlur stdDeviation="25"/>
<feColorMatrix type="matrix" values="0 0 0 0 0 0 0 0 0 0 0 0 0 0 0 0 0 0 0.3 0"/>
<feBlend mode="normal" in2="BackgroundImageFix" result="effect1_dropShadow_1_502"/>
<feBlend mode="normal" in="SourceGraphic" in2="effect1_dropShadow_1_502" result="shape"/>
</filter>
</defs>
</svg>
