<svg width="86" height="41" viewBox="0 0 86 41" fill="none" xmlns="http://www.w3.org/2000/svg">
<path d="M31.1228 36.4789H26.8462C26.3727 37.5468 26.136 38.2873 26.136 38.7003C26.136 39.0026 26.2468 39.194 26.4684 39.2746C26.7001 39.3552 27.0427 39.3955 27.496 39.3955V39.9999H23.3554V39.3955C23.5972 39.3653 23.8037 39.325 23.975 39.2746C24.1563 39.2242 24.3125 39.1537 24.4435 39.063C24.5845 38.9724 24.7054 38.8565 24.8061 38.7155C24.9069 38.5643 25.0026 38.383 25.0933 38.1714L29.0676 28.2129H30.1859L33.7975 37.0381C34.0091 37.5519 34.1854 37.9548 34.3265 38.247C34.4776 38.5392 34.6337 38.7658 34.7949 38.927C34.9662 39.0781 35.1576 39.1839 35.3692 39.2444C35.5908 39.3048 35.8729 39.3501 36.2154 39.3804V39.9999H30.5032V39.3804C30.9868 39.3602 31.3344 39.3098 31.5459 39.2293C31.7575 39.1487 31.8633 38.9875 31.8633 38.7457C31.8633 38.6046 31.828 38.4233 31.7575 38.2017C31.687 37.98 31.5913 37.708 31.4704 37.3856L31.1228 36.4789ZM27.1938 35.5722H30.7903L29.0525 30.9934H28.9921L27.1938 35.5722Z" fill="black"/>
<path d="M47.0594 39.9999H35.9977V39.6524L43.5988 29.1498H39.7756C39.0301 29.1498 38.4659 29.3362 38.0831 29.7089C37.7104 30.0817 37.4535 30.661 37.3124 31.4468H36.7231L36.9648 28.364H46.7572V28.7116L39.2316 39.1537H43.5535C44.0975 39.1537 44.5408 39.1084 44.8833 39.0177C45.2359 38.927 45.518 38.7658 45.7296 38.5341C45.9512 38.3024 46.1225 37.9951 46.2434 37.6123C46.3643 37.2295 46.47 36.7409 46.5607 36.1465H47.2558L47.0594 39.9999Z" fill="black"/>
<path d="M53.7519 39.9999H48.3571V39.3955C48.6996 39.3854 48.9716 39.3552 49.1731 39.3048C49.3847 39.2444 49.5459 39.1386 49.6567 38.9875C49.7675 38.8363 49.8431 38.6248 49.8834 38.3528C49.9237 38.0707 49.9438 37.6929 49.9438 37.2194V31.1445C49.9438 30.7214 49.9237 30.3739 49.8834 30.1018C49.8532 29.8198 49.7877 29.5981 49.6869 29.4369C49.5862 29.2757 49.4401 29.1649 49.2487 29.1045C49.0674 29.034 48.8205 28.9886 48.5082 28.9685V28.364H53.6008V28.9685C53.2885 28.9886 53.0367 29.034 52.8453 29.1045C52.6639 29.1649 52.5229 29.2757 52.4221 29.4369C52.3214 29.5981 52.2509 29.8198 52.2106 30.1018C52.1803 30.3739 52.1652 30.7214 52.1652 31.1445V37.2194C52.1652 37.6929 52.1803 38.0707 52.2106 38.3528C52.2509 38.6248 52.3264 38.8363 52.4372 38.9875C52.5581 39.1386 52.7193 39.2444 52.9208 39.3048C53.1324 39.3552 53.4094 39.3854 53.7519 39.3955V39.9999Z" fill="black"/>
<path d="M61.2472 28.2129C62.1539 28.2129 63.0001 28.369 63.7859 28.6814C64.5717 28.9937 65.2518 29.4218 65.826 29.9658C66.4103 30.5099 66.8687 31.1496 67.2012 31.885C67.5336 32.6204 67.6998 33.4163 67.6998 34.2726C67.6998 35.0887 67.5286 35.8543 67.186 36.5696C66.8536 37.2849 66.3952 37.9095 65.8109 38.4434C65.2367 38.9673 64.5566 39.3854 63.7708 39.6977C62.985 39.9999 62.1438 40.1511 61.2472 40.1511C60.3506 40.1511 59.5094 39.9999 58.7235 39.6977C57.9377 39.3854 57.2527 38.9673 56.6684 38.4434C56.0841 37.9095 55.6257 37.2849 55.2932 36.5696C54.9608 35.8543 54.7945 35.0887 54.7945 34.2726C54.7945 33.4163 54.9608 32.6204 55.2932 31.885C55.6257 31.1496 56.079 30.5099 56.6533 29.9658C57.2376 29.4218 57.9226 28.9937 58.7084 28.6814C59.4942 28.369 60.3405 28.2129 61.2472 28.2129ZM61.2472 39.1688C61.8315 39.1688 62.3604 39.058 62.8339 38.8363C63.3074 38.6046 63.7104 38.2823 64.0428 37.8692C64.3753 37.4461 64.6271 36.9373 64.7984 36.3429C64.9798 35.7385 65.0704 35.0635 65.0704 34.318C65.0704 33.5322 64.9798 32.827 64.7984 32.2024C64.6271 31.5677 64.3753 31.0287 64.0428 30.5854C63.7104 30.1321 63.3074 29.7895 62.8339 29.5578C62.3604 29.316 61.8315 29.1951 61.2472 29.1951C60.6528 29.1951 60.1189 29.316 59.6454 29.5578C59.1819 29.7895 58.784 30.1321 58.4515 30.5854C58.1191 31.0287 57.8622 31.5677 57.6808 32.2024C57.5096 32.827 57.4239 33.5322 57.4239 34.318C57.4239 35.0635 57.5096 35.7385 57.6808 36.3429C57.8622 36.9373 58.1191 37.4461 58.4515 37.8692C58.784 38.2823 59.1819 38.6046 59.6454 38.8363C60.1189 39.058 60.6528 39.1688 61.2472 39.1688Z" fill="black"/>
<path d="M79.1339 39.9999H68.722V39.3955C69.0545 39.3854 69.3265 39.3552 69.538 39.3048C69.7496 39.2544 69.9108 39.1688 70.0216 39.0479C70.1324 38.927 70.208 38.7558 70.2483 38.5341C70.2886 38.3125 70.3087 38.0254 70.3087 37.6728V30.6912C70.3087 30.3386 70.2886 30.0565 70.2483 29.8449C70.218 29.6233 70.1526 29.452 70.0518 29.3311C69.9511 29.2002 69.805 29.1145 69.6136 29.0743C69.4322 29.0239 69.1905 28.9886 68.8882 28.9685V28.364H74.1017V28.9685C73.7592 28.9785 73.4822 29.0088 73.2706 29.0591C73.0691 29.1095 72.9129 29.2002 72.8021 29.3311C72.6913 29.4621 72.6158 29.6435 72.5755 29.8752C72.5452 30.1069 72.5301 30.4141 72.5301 30.797V37.1287C72.5301 37.5519 72.5704 37.8994 72.651 38.1714C72.7417 38.4334 72.8928 38.6399 73.1044 38.791C73.3159 38.9321 73.598 39.0328 73.9506 39.0932C74.3032 39.1436 74.7415 39.1688 75.2653 39.1688C75.8496 39.1688 76.3382 39.1335 76.7311 39.063C77.124 38.9925 77.4515 38.8615 77.7134 38.6701C77.9854 38.4686 78.202 38.2017 78.3632 37.8692C78.5244 37.5368 78.6604 37.1036 78.7712 36.5696H79.3757L79.1339 39.9999Z" fill="black"/>
<path d="M85.5394 39.9999H80.1446V39.3955C80.4871 39.3854 80.7591 39.3552 80.9606 39.3048C81.1722 39.2444 81.3334 39.1386 81.4442 38.9875C81.555 38.8363 81.6306 38.6248 81.6709 38.3528C81.7112 38.0707 81.7313 37.6929 81.7313 37.2194V31.1445C81.7313 30.7214 81.7112 30.3739 81.6709 30.1018C81.6406 29.8198 81.5752 29.5981 81.4744 29.4369C81.3737 29.2757 81.2276 29.1649 81.0362 29.1045C80.8548 29.034 80.608 28.9886 80.2957 28.9685V28.364H85.3883V28.9685C85.076 28.9886 84.8242 29.034 84.6327 29.1045C84.4514 29.1649 84.3104 29.2757 84.2096 29.4369C84.1089 29.5981 84.0384 29.8198 83.9981 30.1018C83.9678 30.3739 83.9527 30.7214 83.9527 31.1445V37.2194C83.9527 37.6929 83.9678 38.0707 83.9981 38.3528C84.0384 38.6248 84.1139 38.8363 84.2247 38.9875C84.3456 39.1386 84.5068 39.2444 84.7083 39.3048C84.9199 39.3552 85.1969 39.3854 85.5394 39.3955V39.9999Z" fill="black"/>
<path d="M15.7927 31.3283V29.6294C15.7927 27.7162 17.349 26.1602 19.2619 26.1602C26.4743 26.1599 32.342 20.2925 32.342 13.0801C32.342 5.86774 26.4743 0 19.2619 0L1.70648 0C1.06874 0 0.551876 0.516866 0.551876 1.1546L0.551876 38.2559C0.551876 38.8936 1.06874 39.4105 1.70648 39.4105H7.71042C12.1671 39.4105 15.7927 35.7849 15.7927 31.3283ZM19.2619 2.30921C25.2012 2.30921 30.0328 7.14081 30.0328 13.0801C30.0328 19.0191 25.2009 23.851 19.2619 23.851C16.0756 23.851 13.4834 26.4431 13.4834 29.6294V31.3283C13.4834 34.1162 11.4969 36.4488 8.86503 36.9852L8.86503 2.30921L19.2619 2.30921Z" fill="black"/>
<path d="M15.7157 0H16.9473V9.31381H15.7157V0Z" fill="black"/>
<path d="M12.2519 9.77577C12.2519 9.09559 12.8033 8.54419 13.4834 8.54419H19.1795C19.8597 8.54419 20.4111 9.09559 20.4111 9.77577V23.928C20.4111 24.4805 20.0431 24.9654 19.5109 25.1141L15.9024 26.1224C15.4571 26.2468 15.1189 26.6102 15.0269 27.0634L13.2582 35.7706C13.2101 36.0075 13.0018 36.1777 12.7601 36.1777C12.4794 36.1777 12.2519 35.9502 12.2519 35.6695V9.77577Z" fill="black"/>
<path d="M17.871 9.31389C17.871 10.1641 17.1817 10.8534 16.3315 10.8534C15.4813 10.8534 14.792 10.1641 14.792 9.31389C14.792 8.46366 15.4813 7.77441 16.3315 7.77441C17.1817 7.77441 17.871 8.46366 17.871 9.31389Z" fill="black"/>
<path d="M27.4926 4.07959H28.7242V9.3138H27.4926V4.07959Z" fill="black"/>
<path d="M23.49 9.77577C23.49 9.09558 24.0414 8.54419 24.7216 8.54419H30.4176C31.0978 8.54419 31.6492 9.09559 31.6492 9.77577V15.5424C31.6492 15.844 31.5385 16.1352 31.3381 16.3606L24.4182 24.1455C24.3174 24.2589 24.1729 24.3238 24.0212 24.3238C23.7278 24.3238 23.49 24.086 23.49 23.7926V9.77577Z" fill="black"/>
<path d="M29.6479 9.31389C29.6479 10.1641 28.9587 10.8534 28.1084 10.8534C27.2582 10.8534 26.569 10.1641 26.569 9.31389C26.569 8.46366 27.2582 7.77441 28.1084 7.77441C28.9587 7.77441 29.6479 8.46366 29.6479 9.31389Z" fill="black"/>
</svg>
